<svg width="110" height="37" viewBox="0 0 110 37" fill="none" xmlns="http://www.w3.org/2000/svg">
<g clip-path="url(#clip0_93_210)">
<path d="M65.8253 3.93033C66.6875 3.20605 66.9268 2.16265 66.5411 1.6095C66.7395 1.21915 67.0792 0.97403 67.4508 0.95183C67.6381 0.94628 67.8187 1.03878 67.9488 1.20713C68.0788 1.37455 68.1465 1.60303 68.1346 1.8352C68.1346 2.9045 66.9952 4.01173 66.2973 4.32623C66.1144 4.24853 65.9517 4.11163 65.8253 3.93033ZM67.1364 5.70633L67.0517 5.93573C66.9186 6.25948 67.1974 6.02823 67.5378 6.16698L67.6388 5.89873C67.7444 5.63695 67.8618 5.3835 67.9904 5.13838V5.14763C67.9904 5.64066 68.3152 6.42135 68.3174 7.14193C68.3397 7.29271 68.3137 7.44903 68.2431 7.57668C68.1725 7.70248 68.0647 7.78943 67.9421 7.81625C67.8774 7.81903 67.8157 7.78851 67.7704 7.73023C67.7258 7.67288 67.702 7.59425 67.7057 7.51378C67.7132 7.35098 67.7986 7.20853 67.9235 7.1558C67.8224 6.79505 67.5459 6.55641 67.2382 6.56381C67.0049 6.56381 66.7811 6.68128 66.6184 6.8894C66.4563 7.09753 66.3686 7.37965 66.3768 7.66918C66.3969 8.14371 66.5745 8.58678 66.8674 8.89388C67.1602 9.20005 67.543 9.3425 67.9228 9.287C68.8801 9.287 69.8671 8.65523 69.8626 7.39908C69.7511 6.6785 69.6055 5.96718 69.4263 5.26788C69.4338 4.9654 69.6151 4.71473 69.8559 4.67126C69.7593 4.21801 69.546 3.81563 69.2487 3.52518C68.3449 3.64543 67.7659 4.29108 67.1349 5.70633H67.1364ZM70.5873 11.4312C70.5806 12.1434 69.957 12.9482 68.8065 12.9324C67.6715 12.9149 66.3753 12.0278 65.3207 11.6023C64.9253 11.4404 64.518 11.3276 64.1047 11.2656L64.0973 11.2906C63.6216 12.6836 62.8167 13.7862 61.603 13.7686C61.3131 13.8019 61.0247 13.6854 60.8077 13.4458C60.5892 13.2062 60.4606 12.8658 60.4524 12.5051C60.4673 11.1056 61.8259 10.3424 62.8873 10.2462L62.8999 10.1944C63.0166 9.72453 63.2678 8.78658 63.3808 8.23065C63.0947 8.81525 62.6034 9.19913 62.0549 9.2648C61.8051 9.26388 61.5665 9.13068 61.4008 8.89943C61.2336 8.66818 61.154 8.35923 61.1815 8.05028C61.1823 7.95593 61.1882 7.86065 61.1979 7.7663C60.6732 8.68668 59.8378 9.25833 58.931 9.3166C58.1699 9.3721 57.4995 8.70333 57.3784 7.77C56.9295 8.6395 56.1929 9.21486 55.3672 9.34251C55.1286 9.3758 54.8892 9.2759 54.7153 9.06963C54.5414 8.86243 54.4515 8.57013 54.4693 8.27228C54.4693 7.40555 54.9665 6.27428 54.9643 5.91353C54.968 5.86635 54.9539 5.8201 54.9272 5.78773C54.8989 5.75535 54.8603 5.74148 54.8231 5.74888C54.392 5.74888 53.8777 7.16505 53.7528 7.61275C53.6109 8.16498 53.4972 8.7283 53.4139 9.29903C52.4321 9.41928 51.8278 9.26665 51.8234 8.42953C51.8249 8.35553 51.8293 8.28153 51.8375 8.20845C51.4421 8.87075 50.8371 9.28978 50.1763 9.361C49.9132 9.39245 49.6524 9.27775 49.4628 9.05021C49.2733 8.82173 49.1744 8.50168 49.1923 8.17423C48.9217 8.82728 48.4089 9.27128 47.8218 9.361C47.5393 9.3425 47.2755 9.18526 47.0889 8.92348C46.9016 8.66171 46.8072 8.3176 46.8273 7.96888C46.5895 8.2399 46.3397 8.49335 46.0796 8.72923L45.8046 9.97243C45.4188 11.7771 44.5701 13.4282 43.0947 13.4366C42.8086 13.4819 42.5209 13.3718 42.3039 13.1359C42.0869 12.9001 41.962 12.5606 41.9598 12.2026C41.9538 10.7337 43.4032 9.79298 44.5009 9.13715L44.6734 8.30558C44.3887 8.89203 43.8967 9.27683 43.3474 9.34158C43.0969 9.3425 42.8576 9.21208 42.6897 8.98083C42.5217 8.74958 42.4407 8.44155 42.4667 8.1326C42.463 7.19743 43.007 5.68505 43.1207 4.5251C43.7406 4.47423 44.5247 4.51585 44.5277 5.2873C44.5277 5.8312 44.0171 7.141 44.0193 7.76353C44.0193 7.91893 44.0505 8.02623 44.1524 8.0253C44.4987 8.0253 45.1661 6.18918 45.3802 4.52233C46.4542 4.44 46.7299 4.84515 46.7329 5.3613C46.6244 6.15681 46.4772 6.94305 46.2936 7.71635C46.5047 7.48788 46.7024 7.2409 46.8838 6.97635C47.1342 5.62215 48.0113 4.4881 48.9515 4.48348C49.2919 4.44925 49.6174 4.662 49.7869 5.03016C49.9749 4.26518 50.4855 1.9943 50.681 0.74093C51.9847 0.754805 52.2998 1.08595 52.3013 1.60118C52.3013 2.39945 50.8965 6.72568 50.8995 7.70895C50.8995 7.89488 50.9315 8.02068 51.0318 8.01975C51.3841 8.01975 52.1497 6.55641 52.3927 6.00973C52.5294 5.51301 52.6335 5.00425 52.7034 4.48718C53.4719 4.43445 54.2805 4.47053 54.2984 5.12358C54.2909 5.32338 54.2567 5.5204 54.1965 5.70633C54.5697 4.97095 55.1999 4.49735 55.8963 4.42428C56.103 4.38728 56.3126 4.46128 56.4724 4.62778C56.6314 4.79428 56.7258 5.03848 56.731 5.29748C56.731 6.01713 56.1944 6.99393 56.1959 7.6183C56.184 7.68028 56.1959 7.74503 56.2286 7.79405C56.2605 7.844 56.3103 7.87268 56.3609 7.87083C56.7213 7.87083 57.2134 6.98005 57.5122 6.35661C57.8838 5.22718 58.7534 4.47238 59.7359 4.42798C60.0347 4.36786 60.3402 4.4585 60.5847 4.68143C60.8285 4.90343 60.9898 5.23828 61.0329 5.61013C61.0329 6.64058 59.8779 7.39908 58.8827 7.52951C58.9317 7.82181 59.1525 8.01975 59.3911 7.98368C60.3439 7.7922 61.154 7.01613 61.5435 5.92L61.5673 5.86728C61.6847 5.39923 61.7732 4.92193 61.8319 4.43815C62.4518 4.38635 63.2359 4.43168 63.2396 5.20128C63.2396 5.74703 62.7253 7.05313 62.7268 7.67751C62.7268 7.8329 62.7594 7.93928 62.8598 7.93928C63.2061 7.93928 63.8743 6.105 64.0891 4.43815C65.1646 4.3549 65.4396 4.76653 65.4418 5.2799C65.4418 5.71188 64.5834 9.37858 64.3805 10.2305C64.6949 10.2731 65.0234 10.335 65.2857 10.3952C66.2393 10.7087 67.21 10.9409 68.1896 11.0889C68.7426 11.2129 69.3045 10.9344 69.6359 10.372C70.1347 10.3397 70.5598 10.816 70.5858 11.4339L70.5873 11.4312ZM58.9407 6.7636C59.3398 6.68035 59.6676 6.32515 59.788 5.84508C59.788 5.79698 59.7716 5.75165 59.7434 5.7202C59.7136 5.68876 59.6765 5.67395 59.6378 5.68043C59.2729 5.8719 59.0105 6.2789 58.9407 6.7636ZM44.2847 10.0714C43.7547 10.483 43.1289 11.1231 43.1326 11.7512C43.123 11.8289 43.1401 11.9085 43.1809 11.9695C43.2211 12.0306 43.2798 12.0676 43.3437 12.0713C43.777 12.0694 44.1167 10.7763 44.2847 10.0714ZM49.4272 6.142C49.4398 6.07078 49.4286 5.99585 49.3959 5.93573C49.3632 5.87468 49.312 5.83398 49.254 5.82103C48.9225 5.82103 48.5107 6.9634 48.5145 7.62478C48.5145 7.87915 48.5851 7.98553 48.678 7.98553C49.0176 7.98368 49.4279 6.66185 49.4279 6.142H49.4272ZM62.6316 11.1685C62.1671 11.174 61.7613 11.5616 61.6372 12.1175C61.6312 12.1971 61.6535 12.2748 61.6981 12.3303C61.7427 12.3876 61.8059 12.4154 61.869 12.408C62.1686 12.4126 62.4361 11.7854 62.6316 11.1685ZM42.0192 7.5332C41.9323 5.73131 40.4636 4.41318 40.3967 3.0192C40.2927 2.42628 40.5655 1.8315 41.0285 1.64095C41.1467 1.64095 41.2589 1.7057 41.3362 1.81485C41.4142 1.92493 41.4514 2.07015 41.438 2.21631C41.4306 2.6714 41.2976 3.10985 41.0612 3.45673C41.253 3.78048 41.5599 3.96918 41.884 3.96086C42.6347 3.79621 43.1415 2.9156 43.0226 1.98135C42.9996 1.3986 42.7811 0.85563 42.4206 0.482855C42.0601 0.109155 41.5897 -0.059195 41.1244 0.018505C40.4555 0.061055 39.8311 0.445855 39.3978 1.08133C38.9653 1.71588 38.7631 2.54468 38.8397 3.3707C38.9274 5.21515 40.1656 6.46021 40.2176 7.7626C40.2414 8.17793 40.1307 8.5877 39.9099 8.90035C39.6899 9.21485 39.3778 9.40633 39.0433 9.43316C38.7869 9.472 38.5297 9.3758 38.3328 9.16953C38.1358 8.96325 38.0169 8.66448 38.0042 8.34443C37.9834 8.00218 38.1239 7.67658 38.3655 7.50915C38.5327 7.38613 38.7445 7.40463 38.8961 7.55818C39.0857 7.43515 39.1986 7.18448 39.183 6.91993C39.1689 6.53975 39.0284 6.18455 38.7951 5.93943C38.5617 5.69338 38.2562 5.57868 37.9522 5.62493C36.8656 5.77015 36.074 6.97081 36.1759 8.32131C36.213 9.21208 36.5453 10.0437 37.093 10.6199C37.6408 11.1962 38.3565 11.4663 39.0701 11.3655C39.8787 11.3738 40.6539 10.9668 41.2121 10.2407C41.771 9.51455 42.0624 8.53405 42.0192 7.53228V7.5332ZM10.7376 27.9387C11.1642 28.6833 11.4935 32.98 11.3753 34.4193C11.3642 34.5552 11.3107 34.681 11.2259 34.7689C10.8655 35.1371 5.80472 35.6375 3.4858 35.6375C3.10749 35.6745 2.7277 35.6347 2.35905 35.5219C2.28621 35.4599 2.23121 35.3711 2.20222 35.2684C1.01452 31.1688 -0.22521 17.5177 0.0349252 16.6223C0.0758036 16.4835 0.161277 16.3725 0.272763 16.3161C1.24641 15.8221 4.67425 15.3106 5.9779 15.6936C6.11614 15.7343 6.22837 15.8582 6.27594 16.0229C6.4558 17.8137 6.5554 19.6146 6.57472 21.4193C6.67134 23.7457 6.78209 26.3486 6.88317 27.8703L7.26148 27.8203C8.33844 27.5817 9.43918 27.5548 10.5221 27.7435C10.6098 27.7778 10.6856 27.8471 10.7376 27.9406V27.9387ZM23.8923 15.7324C22.2453 15.6001 20.5923 15.8064 18.9988 16.3429C18.8323 16.416 18.7201 16.6112 18.7186 16.8304C18.7505 17.4196 18.8122 18.0051 18.9029 18.5851C19.1876 20.8181 19.8565 26.0462 18.891 27.2524C18.7401 27.4438 18.5186 27.5206 18.3098 27.454C17.2098 27.2487 16.8181 23.7457 17.1429 17.3169C17.2098 16.0636 17.2098 15.8961 17.1355 15.7056C17.0961 15.6085 17.0336 15.5289 16.9571 15.4771C16.3476 15.0794 13.0179 15.0137 11.8659 15.3763C11.7611 15.4096 11.6704 15.4919 11.6132 15.6075C11.2415 16.3586 10.5295 24.6466 12.1877 30.3224C13.058 33.3083 15.2551 35.3877 17.8066 35.6403C18.0697 35.6736 18.3343 35.6911 18.5989 35.6911C20.7617 35.7836 22.8124 34.4933 24.029 32.2723C26.0239 28.2699 24.7812 18.1198 24.2401 16.0876C24.1896 15.8943 24.0543 15.7565 23.8923 15.7324ZM40.3016 16.7111C40.2615 16.6038 40.1931 16.5168 40.1084 16.4641C39.5376 16.1033 35.7559 15.9553 35.1138 16.2698C35.0015 16.3263 34.9131 16.4391 34.873 16.5806C34.6559 18.2752 34.5363 19.9865 34.514 21.7024C32.7451 17.4178 31.9899 15.9535 31.4756 15.7676C31.4474 15.7583 31.4191 15.7518 31.3894 15.7491C30.0575 15.6122 28.7197 15.5742 27.3833 15.6353C27.3231 15.6436 27.2644 15.6677 27.2124 15.7074C26.9819 15.9405 26.843 16.2856 26.8303 16.6537C26.4067 19.0569 25.6367 34.0983 26.1451 35.015C26.1636 35.0473 26.1845 35.0769 26.2075 35.1038C26.3361 35.2508 26.5315 35.4719 28.7449 35.3563C29.5759 35.3378 30.4046 35.2268 31.2199 35.0224C31.2615 34.9992 31.3009 34.9669 31.3344 34.928C31.709 34.497 31.9171 32.2834 32.033 29.9145C32.7852 32.0272 33.9238 34.8512 34.5749 35.2462C34.6047 35.2638 34.6359 35.2767 34.6671 35.286C35.6482 35.4617 36.6382 35.5644 37.6297 35.5949C38.0325 35.6356 38.4376 35.5626 38.8144 35.3803C38.989 35.2286 39.3503 34.9123 39.9947 26.2108C40.1857 23.6254 40.5974 17.5306 40.3016 16.7111ZM54.6247 34.1029C54.1921 35.2314 50.212 36.1222 49.3216 35.9585C49.1618 35.9289 49.0295 35.7883 48.9812 35.5977L48.3844 33.2205C48.0819 33.2612 47.7801 33.2963 47.4858 33.3315C46.9938 33.3907 46.5233 33.4471 46.1309 33.5146L45.8782 35.4423C45.8633 35.5552 45.8194 35.6588 45.7533 35.7383C45.5653 35.9575 44.9305 36.0667 43.8603 36.0667C43.4537 36.0667 42.9832 36.051 42.4511 36.0195C40.5855 35.9067 40.4354 35.6902 40.3254 35.5348C40.147 35.2943 39.8906 34.9502 41.577 26.0267C42.0735 23.4025 43.2672 17.2494 43.6395 16.811C44.2274 16.2227 49.2257 16.0589 49.8857 16.5779C49.934 16.6149 49.9764 16.6657 50.0084 16.7249C50.4766 17.5778 53.9936 30.7498 54.6492 33.7422C54.6752 33.8624 54.6663 33.9901 54.6247 34.1029ZM47.1342 26.1498L46.3739 31.4065L46.6326 31.3862C47.0748 31.351 47.5988 31.3113 48.0046 31.2363L47.1342 26.1488V26.1498ZM63.4915 29.3826C66.0111 28.7583 68.7946 26.6086 69.6211 23.0307C69.9734 21.6459 69.7972 20.1363 69.1417 18.9329C68.2505 17.3003 66.5463 16.2495 64.344 15.9711C62.6978 15.7666 59.2476 15.9979 57.5902 16.8304C57.469 16.8914 57.3776 17.0191 57.3427 17.1754C56.9369 19.0078 57.7857 33.3093 58.0755 35.3794C58.0889 35.4812 58.1276 35.5755 58.184 35.6495C58.708 35.9511 59.2885 36.0658 59.8623 35.9834C61.4246 35.9834 63.5324 35.6375 63.8676 35.2527C63.9568 35.1482 64.0051 35.002 63.9999 34.8503C63.9888 34.4507 63.9115 33.7468 63.8156 32.8542C63.7011 31.8145 63.5644 30.5472 63.4886 29.3826H63.4915ZM63.1497 22.5423C63.5755 22.3619 64.046 22.4932 64.3686 22.8827C64.6904 23.2712 64.8086 23.853 64.6748 24.3858C64.4719 25.2164 63.9568 25.875 63.2931 26.1507C63.2351 24.8501 63.1668 23.2564 63.1504 22.5423H63.1497ZM78.566 17.1116C77.7856 16.847 74.0025 16.1302 72.9471 16.6685C72.733 16.7786 72.1637 17.069 69.5705 25.6873C69.3119 26.5503 67.0398 34.1371 67.1706 35.0575C67.187 35.1722 67.2338 35.2767 67.3036 35.3554C67.6032 35.6902 71.1351 36.3423 72.5353 36.1324C72.704 36.1074 72.843 35.9575 72.8884 35.754C73.0615 34.9706 73.3908 33.8032 73.5513 33.2436C74.0092 33.2399 74.467 33.2713 74.9219 33.3389C75.2489 33.3777 75.5849 33.4221 75.9163 33.4351L76.3608 36.4274C76.3928 36.6504 76.5384 36.8224 76.7198 36.8502C76.9272 36.8788 77.136 36.8918 77.3441 36.8899C78.9094 36.8529 80.465 36.5736 81.9745 36.0584C82.1529 35.9751 82.2629 35.7531 82.2443 35.5182C82.2309 35.3535 79.6994 18.1004 78.702 17.1939C78.6611 17.156 78.6151 17.1292 78.566 17.1116ZM75.7328 31.0994C75.2184 31.129 74.606 31.1485 74.1259 31.1568L75.2772 26.5235L75.7328 31.0994ZM92.6802 29.0885C93.5832 28.2551 95.4213 26.1673 95.2429 23.1121C95.0051 19.0051 91.9905 16.7712 89.1089 16.3808C87.2523 16.1292 83.5234 16.6389 82.8545 17.1208C82.7401 17.2041 82.6643 17.3493 82.6501 17.513C82.416 20.1632 82.6107 32.4573 83.0113 35.5071C83.0314 35.6662 83.1109 35.8049 83.2254 35.8808C83.8386 36.2924 87.8989 36.3063 88.5009 35.7744C88.6213 35.6689 88.6882 35.4923 88.6763 35.31L88.5217 32.9291C89.2583 33.9984 90.1495 35.0677 90.8585 35.9233C91.1558 36.2822 91.4159 36.5949 91.6092 36.8409C91.6716 36.9223 91.7541 36.975 91.8433 36.9926C91.8693 36.9972 91.8961 37 91.9228 37C92.2142 36.9464 92.4847 36.7808 92.6958 36.5255C93.3395 35.9141 95.4101 33.5331 95.48 32.7348C95.4852 32.6793 95.483 32.6238 95.4733 32.5702C95.3841 32.0374 93.8367 30.315 92.6802 29.0885ZM88.3352 28.3013L88.275 23.8271C90.1108 23.4108 90.4445 27.7204 88.3344 28.3022V28.3013H88.3352ZM108.549 33.6154C108.477 33.7357 106.779 36.5606 106.105 36.6772C106.086 36.6809 106.067 36.6827 106.047 36.6827C105.948 36.6827 105.852 36.6393 105.777 36.5597C104.417 35.0954 103.138 33.5192 101.949 31.8422L101.984 32.7117C102.028 33.831 102.07 34.8855 102.06 35.3702C102.054 35.5801 101.948 35.7661 101.79 35.8419C101.277 36.0889 97.3604 36.5782 96.7205 36.2073C96.5896 36.1333 96.4997 35.9797 96.4804 35.8031C96.0463 29.8396 95.9133 23.8493 96.0827 17.8655C96.0887 17.7276 96.1385 17.5991 96.221 17.5084C96.7948 16.8637 101.445 17.2281 101.78 17.477C101.923 17.5843 102.001 17.7868 101.98 17.9922C101.902 18.7414 101.839 20.5748 101.801 21.9641C103.1 19.795 104.68 17.6148 104.76 17.5038C104.851 17.3789 104.985 17.316 105.121 17.3354C105.845 17.4381 108.686 20.4314 109.049 21.3203C109.096 21.4378 109.107 21.5729 109.078 21.6996C108.942 22.2944 106.354 25.8131 105.425 27.047C106.233 27.9369 108.301 30.2401 109.214 31.475C109.269 31.5508 109.306 31.6452 109.318 31.7469C109.345 31.9384 109.382 32.227 108.549 33.6154Z" fill="#EC1D3B"/>
</g>
<defs>
<clipPath id="clip0_93_210">
<rect width="110" height="37" fill="white"/>
</clipPath>
</defs>
</svg>
